# This file uses centimeters as units for non-parametric coordinates.

mtllib store 2.mtl
g default
v -2.903810 -0.319621 1.850157
v 2.903810 -0.319621 1.850157
v -2.903810 4.222717 1.850157
v 2.903810 4.222717 1.850157
v -2.903810 4.222717 -1.850157
v 2.903810 4.222717 -1.850157
v -2.903810 -0.319621 -1.850157
v 2.903810 -0.319621 -1.850157
v -2.613787 1.444889 1.850157
v 2.613787 1.444889 1.850157
v 2.613787 3.966750 1.850157
v -2.613787 3.966750 1.850157
v -2.613787 1.444889 -1.342564
v 2.613787 1.444889 -1.342564
v 2.613787 3.966750 -1.342564
v -2.613787 3.966750 -1.342564
v -2.613787 1.444889 1.154868
v 2.613787 1.444889 1.154868
v 2.613787 1.444889 -1.359721
v -2.613787 1.444889 -1.359721
v -2.613787 0.143623 1.154868
v 2.613787 0.143623 1.154868
v 2.613787 0.143623 -1.359721
v -2.613787 0.143623 -1.359721
vt 0.194551 0.007893
vt 0.805449 0.007893
vt 0.194551 0.994559
vt 0.805449 0.994559
vt 0.000385 0.251078
vt 0.999615 0.251078
vt 0.000385 0.998922
vt 0.999615 0.998922
vt 0.375000 1.000000
vt 0.625000 1.000000
vt 1.416348 0.007893
vt 1.416348 0.994559
vt -0.416348 0.007893
vt -0.416348 0.994559
vt 0.375000 0.000000
vt 0.625000 0.000000
vt 0.625000 0.250000
vt 0.375000 0.250000
vt 0.024565 0.190876
vt 0.975435 0.190876
vt 0.975435 1.008944
vt 0.024565 1.008944
vt 0.375000 0.000000
vt 0.625000 0.000000
vt 0.625000 0.000000
vt 0.375000 0.000000
vt 0.375000 0.000000
vt 0.625000 0.000000
vt 0.625000 0.000000
vt 0.375000 0.000000
vn 0.000000 0.000000 1.000000
vn 0.000000 0.000000 1.000000
vn 0.000000 0.000000 1.000000
vn 0.000000 0.000000 1.000000
vn 0.000000 1.000000 0.000000
vn 0.000000 1.000000 0.000000
vn 0.000000 1.000000 0.000000
vn 0.000000 1.000000 0.000000
vn 0.000000 0.000000 -1.000000
vn 0.000000 0.000000 -1.000000
vn 0.000000 0.000000 -1.000000
vn 0.000000 0.000000 -1.000000
vn 0.000000 -1.000000 0.000000
vn 0.000000 -1.000000 0.000000
vn 0.000000 -1.000000 0.000000
vn 0.000000 -1.000000 0.000000
vn 1.000000 0.000000 0.000000
vn 1.000000 0.000000 0.000000
vn 1.000000 0.000000 0.000000
vn 1.000000 0.000000 0.000000
vn -1.000000 0.000000 0.000000
vn -1.000000 0.000000 0.000000
vn -1.000000 0.000000 0.000000
vn -1.000000 0.000000 0.000000
vn 0.000000 0.000000 1.000000
vn 0.000000 0.000000 1.000000
vn 0.000000 0.000000 1.000000
vn 0.000000 0.000000 1.000000
vn 0.000000 0.000000 1.000000
vn 0.000000 0.000000 1.000000
vn 0.000000 0.000000 1.000000
vn 0.000000 0.000000 1.000000
vn 0.000000 0.000000 1.000000
vn 0.000000 0.000000 1.000000
vn 0.000000 0.000000 1.000000
vn 0.000000 0.000000 1.000000
vn 0.000000 0.000000 1.000000
vn 0.000000 0.000000 1.000000
vn 0.000000 0.000000 1.000000
vn 0.000000 0.000000 1.000000
vn 0.000000 1.000000 0.000000
vn 0.000000 1.000000 0.000000
vn 0.000000 1.000000 0.000000
vn 0.000000 1.000000 0.000000
vn -1.000000 0.000000 0.000000
vn -1.000000 0.000000 0.000000
vn -1.000000 0.000000 0.000000
vn -1.000000 0.000000 0.000000
vn 0.000000 -1.000000 0.000000
vn 0.000000 -1.000000 0.000000
vn 0.000000 -1.000000 0.000000
vn 0.000000 -1.000000 0.000000
vn 1.000000 0.000000 0.000000
vn 1.000000 0.000000 0.000000
vn 1.000000 0.000000 0.000000
vn 1.000000 0.000000 0.000000
vn 0.000000 1.000000 -0.000000
vn 0.000000 1.000000 -0.000000
vn 0.000000 1.000000 -0.000000
vn 0.000000 1.000000 -0.000000
vn -0.000000 0.000000 0.000000
vn -0.626705 0.779257 0.000000
vn -0.000000 0.000000 0.000000
vn -0.626705 0.779257 0.000000
vn 0.000000 -1.000000 0.000009
vn 0.000000 -1.000000 0.000009
vn 0.000000 -1.000000 0.000009
vn 0.000000 -1.000000 0.000009
vn 0.659503 0.751702 0.000000
vn 0.000000 0.000000 0.000000
vn 0.659503 0.751702 0.000000
vn 0.000000 0.000000 0.000000
vn 0.000000 0.000000 -1.000000
vn 0.000000 0.000000 -1.000000
vn 0.000000 0.000000 -1.000000
vn 0.000000 0.000000 -1.000000
vn -1.000000 0.000000 0.000000
vn -1.000000 0.000000 0.000000
vn -1.000000 0.000000 0.000000
vn -1.000000 0.000000 0.000000
vn 0.000000 0.000000 1.000000
vn 0.000000 0.000000 1.000000
vn 0.000000 0.000000 1.000000
vn 0.000000 0.000000 1.000000
vn 1.000000 0.000000 0.000000
vn 1.000000 0.000000 0.000000
vn 1.000000 0.000000 0.000000
vn 1.000000 0.000000 0.000000
s off
g pCube1
usemtl lambert7SG
f 13/19/1 14/20/2 15/21/3 16/22/4
usemtl lambert6SG
f 3/3/5 4/4/6 6/6/7 5/5/8
usemtl lambert4SG
f 5/5/9 6/6/10 8/8/11 7/7/12
usemtl lambert3SG
f 7/7/13 8/8/14 2/10/15 1/9/16
usemtl lambert5SG
f 2/2/17 8/11/18 6/12/19 4/4/20
f 7/13/21 1/1/22 3/3/23 5/14/24
usemtl lambert10SG
f 1/1/25 2/2/26 10/16/27 9/15/28
usemtl lambert2SG
f 2/2/29 4/4/30 11/17/31 10/16/32
usemtl phong2SG
f 4/4/33 3/3/34 12/18/35 11/17/36
usemtl lambert2SG
f 3/3/37 1/1/38 9/15/39 12/18/40
usemtl lambert8SG
f 21/27/41 22/28/42 23/29/43 24/30/44
usemtl lambert2SG
f 10/16/45 11/17/46 15/21/47 14/20/48
f 11/17/49 12/18/50 16/22/51 15/21/52
f 12/18/53 9/15/54 13/19/55 16/22/56
usemtl phong1SG
f 9/15/57 10/16/58 18/24/59 17/23/60
usemtl lambert2SG
f 10/16/61 14/20/62 19/25/63 18/24/64
f 14/20/65 13/19/66 20/26/67 19/25/68
f 13/19/69 9/15/70 17/23/71 20/26/72
f 17/23/73 18/24/74 22/28/75 21/27/76
usemtl lambert8SG
f 18/24/77 19/25/78 23/29/79 22/28/80
f 19/25/81 20/26/82 24/30/83 23/29/84
f 20/26/85 17/23/86 21/27/87 24/30/88
g default
v -2.868842 4.218448 -1.137523
v -2.276212 4.218448 -1.137523
v -2.868842 5.809293 -1.137523
v -2.276212 5.809293 -1.137523
v -2.868842 5.809293 -1.783838
v -2.276212 5.809293 -1.783838
v -2.868842 4.218448 -1.783838
v -2.276212 4.218448 -1.783838
vt -0.002412 0.604829
vt -0.000517 0.389991
vt 0.350355 0.605982
vt 0.352250 0.391144
vt 0.703122 0.607136
vt 0.705017 0.392298
vt 1.055889 0.608289
vt 1.057784 0.393451
vt 1.408656 0.609443
vt 1.408144 0.396838
vt 0.001377 0.175153
vt 0.354144 0.176306
vt -0.004306 0.819667
vt 0.348461 0.820820
vn 0.000000 0.000000 1.000000
vn 0.000000 0.000000 1.000000
vn 0.000000 0.000000 1.000000
vn 0.000000 0.000000 1.000000
vn 0.000000 1.000000 0.000000
vn 0.000000 1.000000 0.000000
vn 0.000000 1.000000 0.000000
vn 0.000000 1.000000 0.000000
vn 0.000000 0.000000 -1.000000
vn 0.000000 0.000000 -1.000000
vn 0.000000 0.000000 -1.000000
vn 0.000000 0.000000 -1.000000
vn 0.000000 -1.000000 0.000000
vn 0.000000 -1.000000 0.000000
vn 0.000000 -1.000000 0.000000
vn 0.000000 -1.000000 0.000000
vn 1.000000 0.000000 0.000000
vn 1.000000 0.000000 0.000000
vn 1.000000 0.000000 0.000000
vn 1.000000 0.000000 0.000000
vn -1.000000 0.000000 0.000000
vn -1.000000 0.000000 0.000000
vn -1.000000 0.000000 0.000000
vn -1.000000 0.000000 0.000000
s off
g pCube2
usemtl lambert9SG
f 25/31/89 26/32/90 28/34/91 27/33/92
f 27/33/93 28/34/94 30/36/95 29/35/96
f 29/35/97 30/36/98 32/38/99 31/37/100
f 31/37/101 32/38/102 26/40/103 25/39/104
f 26/32/105 32/41/106 30/42/107 28/34/108
f 31/43/109 25/31/110 27/33/111 29/44/112
g default
v -2.868842 4.218448 1.801632
v -2.276212 4.218448 1.801632
v -2.868842 5.809293 1.801632
v -2.276212 5.809293 1.801632
v -2.868842 5.809293 1.155317
v -2.276212 5.809293 1.155317
v -2.868842 4.218448 1.155317
v -2.276212 4.218448 1.155317
vt -0.002412 0.604829
vt -0.000518 0.389991
vt 0.350355 0.605982
vt 0.352250 0.391144
vt 0.703122 0.607136
vt 0.705017 0.392298
vt 1.055889 0.608289
vt 1.057784 0.393451
vt 1.408656 0.609443
vt 1.410551 0.394605
vt 0.001377 0.175153
vt 0.354144 0.176306
vt -0.004306 0.819667
vt 0.348461 0.820820
vn 0.000000 0.000000 1.000000
vn 0.000000 0.000000 1.000000
vn 0.000000 0.000000 1.000000
vn 0.000000 0.000000 1.000000
vn 0.000000 1.000000 0.000000
vn 0.000000 1.000000 0.000000
vn 0.000000 1.000000 0.000000
vn 0.000000 1.000000 0.000000
vn 0.000000 0.000000 -1.000000
vn 0.000000 0.000000 -1.000000
vn 0.000000 0.000000 -1.000000
vn 0.000000 0.000000 -1.000000
vn 0.000000 -1.000000 0.000000
vn 0.000000 -1.000000 0.000000
vn 0.000000 -1.000000 0.000000
vn 0.000000 -1.000000 0.000000
vn 1.000000 0.000000 0.000000
vn 1.000000 0.000000 0.000000
vn 1.000000 0.000000 0.000000
vn 1.000000 0.000000 0.000000
vn -1.000000 0.000000 0.000000
vn -1.000000 0.000000 0.000000
vn -1.000000 0.000000 0.000000
vn -1.000000 0.000000 0.000000
s off
g pCube3
usemtl lambert9SG
f 33/45/113 34/46/114 36/48/115 35/47/116
f 35/47/117 36/48/118 38/50/119 37/49/120
f 37/49/121 38/50/122 40/52/123 39/51/124
f 39/51/125 40/52/126 34/54/127 33/53/128
f 34/46/129 40/55/130 38/56/131 36/48/132
f 39/57/133 33/45/134 35/47/135 37/58/136
g default
v 2.256200 4.218448 1.801632
v 2.848830 4.218448 1.801632
v 2.256200 5.809293 1.801632
v 2.848830 5.809293 1.801632
v 2.256200 5.809293 1.155317
v 2.848830 5.809293 1.155317
v 2.256200 4.218448 1.155317
v 2.848830 4.218448 1.155317
vt -0.002412 0.604829
vt -0.000518 0.389991
vt 0.350355 0.605982
vt 0.352250 0.391144
vt 0.703122 0.607136
vt 0.705017 0.392298
vt 1.055889 0.608289
vt 1.057784 0.393451
vt 1.408656 0.609443
vt 1.410551 0.394605
vt 0.001377 0.175153
vt 0.354144 0.176306
vt -0.004306 0.819667
vt 0.348461 0.820820
vn 0.000000 0.000000 1.000000
vn 0.000000 0.000000 1.000000
vn 0.000000 0.000000 1.000000
vn 0.000000 0.000000 1.000000
vn 0.000000 1.000000 0.000000
vn 0.000000 1.000000 0.000000
vn 0.000000 1.000000 0.000000
vn 0.000000 1.000000 0.000000
vn 0.000000 0.000000 -1.000000
vn 0.000000 0.000000 -1.000000
vn 0.000000 0.000000 -1.000000
vn 0.000000 0.000000 -1.000000
vn 0.000000 -1.000000 0.000000
vn 0.000000 -1.000000 0.000000
vn 0.000000 -1.000000 0.000000
vn 0.000000 -1.000000 0.000000
vn 1.000000 0.000000 0.000000
vn 1.000000 0.000000 0.000000
vn 1.000000 0.000000 0.000000
vn 1.000000 0.000000 0.000000
vn -1.000000 0.000000 0.000000
vn -1.000000 0.000000 0.000000
vn -1.000000 0.000000 0.000000
vn -1.000000 0.000000 0.000000
s off
g pCube4
usemtl lambert9SG
f 41/59/137 42/60/138 44/62/139 43/61/140
f 43/61/141 44/62/142 46/64/143 45/63/144
f 45/63/145 46/64/146 48/66/147 47/65/148
f 47/65/149 48/66/150 42/68/151 41/67/152
f 42/60/153 48/69/154 46/70/155 44/62/156
f 47/71/157 41/59/158 43/61/159 45/72/160
g default
v 2.265585 4.218448 -1.029208
v 2.858215 4.218448 -1.029208
v 2.265585 5.809293 -1.029208
v 2.858215 5.809293 -1.029208
v 2.265585 5.809293 -1.675523
v 2.858215 5.809293 -1.675523
v 2.265585 4.218448 -1.675523
v 2.858215 4.218448 -1.675523
vn 0.000000 0.000000 1.000000
vn 0.000000 0.000000 1.000000
vn 0.000000 0.000000 1.000000
vn 0.000000 0.000000 1.000000
vn 0.000000 1.000000 0.000000
vn 0.000000 1.000000 0.000000
vn 0.000000 1.000000 0.000000
vn 0.000000 1.000000 0.000000
vn 0.000000 0.000000 -1.000000
vn 0.000000 0.000000 -1.000000
vn 0.000000 0.000000 -1.000000
vn 0.000000 0.000000 -1.000000
vn 0.000000 -1.000000 0.000000
vn 0.000000 -1.000000 0.000000
vn 0.000000 -1.000000 0.000000
vn 0.000000 -1.000000 0.000000
vn 1.000000 0.000000 0.000000
vn 1.000000 0.000000 0.000000
vn 1.000000 0.000000 0.000000
vn 1.000000 0.000000 0.000000
vn -1.000000 0.000000 0.000000
vn -1.000000 0.000000 0.000000
vn -1.000000 0.000000 0.000000
vn -1.000000 0.000000 0.000000
s off
g pCube5
usemtl lambert9SG
f 49//161 50//162 52//163 51//164
f 51//165 52//166 54//167 53//168
f 53//169 54//170 56//171 55//172
f 55//173 56//174 50//175 49//176
f 50//177 56//178 54//179 52//180
f 55//181 49//182 51//183 53//184
